<?xml version="1.0" standalone="no"?>
<!DOCTYPE svg PUBLIC "-//W3C//DTD SVG 20010904//EN"
 "http://www.w3.org/TR/2001/REC-SVG-20010904/DTD/svg10.dtd">
<svg version="1.0" xmlns="http://www.w3.org/2000/svg"
 width="3754.000000pt" height="1672.000000pt" viewBox="0 0 3754.000000 1672.000000"
 preserveAspectRatio="xMidYMid meet">
<style type="text/css">
  <![CDATA[
    g {
      fill: #1A1919;
    }

    g:hover {
      fill: #DB518F;
    }
  ]]>
</style>
<metadata>
Created by potrace 1.12, written by Peter Selinger 2001-2015
</metadata>
<a xmlns="http://www.w3.org/2000/svg" xlink:href="/about" xmlns:xlink="http://www.w3.org/1999/xlink" target="_top">
<g transform="translate(0.000000,1672.000000) scale(0.100000,-0.100000)"
stroke="none">
<path d="M36465 16701 c-61 -16 -103 -46 -207 -152 -183 -187 -349 -410 -461
-619 -106 -197 -236 -546 -452 -1205 -171 -525 -187 -566 -300 -805 -102 -215
-130 -287 -312 -820 -69 -201 -178 -507 -243 -680 -142 -380 -168 -460 -354
-1080 -193 -643 -237 -776 -346 -1030 -122 -284 -140 -335 -189 -530 -107
-421 -218 -753 -500 -1489 -56 -145 -112 -283 -126 -307 -74 -126 -159 -125
-278 4 -21 23 -48 44 -60 46 -35 8 -519 65 -652 77 -66 6 -268 12 -450 13
-363 1 -409 -4 -562 -65 -94 -37 -287 -134 -399 -200 -135 -80 -556 -349 -580
-371 -12 -10 -39 -51 -60 -90 -51 -94 -113 -154 -268 -263 -442 -310 -518
-384 -861 -840 -188 -250 -286 -369 -510 -615 -376 -416 -511 -599 -669 -910
-126 -248 -215 -493 -292 -805 -143 -580 -121 -1037 81 -1665 176 -548 401
-927 696 -1175 186 -156 469 -324 671 -399 175 -65 285 -87 458 -93 213 -7
395 23 704 119 199 61 828 289 864 313 20 13 75 66 122 116 135 147 296 273
472 370 152 84 466 209 524 209 31 0 93 -31 118 -59 10 -11 61 -143 112 -293
52 -150 116 -319 143 -375 102 -209 282 -442 565 -731 169 -172 198 -197 260
-226 97 -46 164 -61 276 -60 71 1 110 6 154 22 172 62 318 203 415 398 64 130
83 203 88 345 6 156 -7 234 -117 664 -101 394 -120 501 -127 696 -5 122 -2
183 12 277 l18 121 -30 78 c-17 43 -39 111 -48 151 -17 71 -17 76 9 315 47
427 99 762 211 1377 110 603 242 1166 414 1772 109 379 161 540 276 844 200
528 222 604 480 1639 178 716 205 811 321 1165 228 696 321 954 406 1135 95
201 120 270 187 521 76 284 95 337 231 624 122 257 158 353 290 767 198 619
241 718 496 1140 92 152 191 326 219 387 163 344 225 732 225 1413 0 241 -2
287 -16 315 -26 53 -285 283 -419 372 -158 106 -285 146 -475 152 -69 2 -138
0 -155 -5z m-4208 -10369 c76 -39 123 -127 123 -230 0 -64 -29 -199 -111 -512
-81 -312 -117 -500 -129 -670 -25 -338 -59 -494 -145 -657 -111 -210 -283
-368 -857 -785 -289 -210 -363 -267 -505 -394 -89 -79 -178 -141 -326 -228
-205 -121 -333 -169 -772 -291 l-299 -84 -54 57 c-84 90 -94 121 -100 298 -6
185 12 306 68 476 40 119 128 308 179 382 16 23 114 201 219 397 228 426 375
684 410 721 14 15 62 46 106 69 124 64 159 94 324 277 185 206 357 357 763
669 404 310 564 406 849 504 102 36 188 36 257 1z"/>
<path d="M16825 12684 c-106 -23 -228 -87 -301 -159 -104 -102 -133 -181 -163
-435 -11 -91 -31 -212 -46 -270 -47 -184 -82 -378 -139 -756 -59 -390 -66
-430 -145 -809 -61 -296 -81 -415 -121 -715 -49 -374 -69 -460 -176 -748 -82
-220 -106 -314 -139 -537 -71 -488 -200 -1004 -426 -1707 -195 -610 -302 -967
-593 -1978 -270 -940 -272 -952 -263 -1257 6 -211 28 -346 79 -491 65 -184
128 -282 275 -422 115 -110 224 -191 343 -254 110 -57 168 -74 309 -87 219
-20 320 -56 396 -142 32 -36 80 -120 156 -272 123 -249 212 -399 281 -479 26
-30 161 -161 300 -292 139 -131 314 -297 388 -369 231 -222 433 -334 730 -400
117 -26 403 -32 532 -10 271 44 640 223 918 445 108 86 256 240 435 449 322
377 357 424 520 691 49 80 116 183 149 230 159 226 500 703 679 949 229 314
240 333 333 536 38 83 90 182 117 222 57 86 146 169 227 212 66 35 99 70 137
145 29 57 31 86 18 276 -5 79 -4 128 4 157 18 68 68 123 146 164 48 25 72 43
76 60 14 49 8 136 -13 208 -22 74 -22 74 -4 180 10 58 46 205 81 326 34 121
70 261 80 310 23 116 24 293 2 405 -9 47 -28 171 -42 275 -55 407 -106 528
-305 725 -108 107 -209 184 -373 283 -273 165 -523 258 -945 351 -251 56 -363
69 -547 64 -144 -5 -174 -9 -297 -42 -353 -93 -773 -232 -1106 -365 -289 -115
-330 -138 -713 -392 -239 -158 -277 -176 -336 -160 -21 5 -31 17 -41 47 -17
48 -11 111 23 259 29 129 31 169 9 284 -13 66 -15 124 -11 251 5 189 19 267
107 621 33 130 73 312 89 405 17 94 49 251 71 349 162 715 162 713 235 1465
32 328 50 452 127 850 66 348 67 371 28 550 -76 350 -285 603 -605 731 -193
77 -404 105 -550 73z m3243 -6798 l40 -43 -24 -81 c-12 -45 -37 -159 -54 -254
-49 -273 -90 -374 -196 -488 -109 -116 -135 -171 -184 -390 -12 -53 -41 -137
-66 -190 -41 -86 -55 -104 -154 -201 -100 -98 -110 -111 -125 -165 -9 -33 -23
-80 -31 -106 -15 -45 -238 -410 -535 -873 -74 -115 -171 -271 -214 -345 -89
-150 -110 -174 -401 -442 -234 -217 -302 -269 -429 -333 -117 -58 -197 -82
-299 -92 l-63 -6 -57 77 c-76 103 -120 185 -146 276 -43 147 -77 186 -154 178
-24 -3 -64 -15 -88 -27 -93 -44 -142 -21 -227 109 -66 100 -94 165 -111 260
-14 80 -15 206 -1 242 24 62 323 461 502 668 259 301 952 951 1504 1411 373
311 956 731 1081 779 64 24 309 78 360 79 25 1 40 -8 72 -43z"/>
<path d="M5520 9470 c-357 -63 -649 -261 -1113 -755 -311 -330 -553 -619 -779
-930 -186 -258 -243 -299 -343 -248 -16 9 -118 102 -225 208 -208 204 -250
238 -363 290 -113 52 -208 69 -351 62 -133 -6 -209 -25 -306 -79 -127 -70
-196 -151 -291 -341 -78 -154 -119 -259 -254 -642 -249 -708 -356 -1061 -670
-2205 -64 -234 -180 -648 -257 -920 -249 -880 -354 -1333 -467 -2020 -80 -488
-94 -607 -88 -790 5 -183 16 -232 69 -318 18 -28 71 -114 117 -190 183 -298
260 -393 380 -470 129 -84 253 -112 491 -113 217 -1 338 29 447 110 74 54 328
451 478 746 98 192 166 353 320 750 282 726 390 937 1040 2020 354 591 513
851 1175 1930 412 671 631 1024 737 1188 69 107 97 127 172 127 32 0 44 -6 69
-34 49 -56 54 -102 43 -356 -10 -216 -18 -418 -41 -1005 -20 -498 -34 -612
-115 -896 -81 -284 -93 -355 -145 -874 -52 -522 -83 -722 -230 -1499 l-81
-428 31 -137 c51 -226 60 -245 212 -473 228 -342 399 -544 539 -635 202 -131
474 -150 694 -48 129 60 243 162 294 264 80 158 149 405 157 561 5 97 3 114
-27 225 -25 94 -33 146 -37 242 -6 158 6 232 83 538 35 138 71 302 80 365 19
134 56 296 125 540 86 305 114 453 125 660 9 176 32 382 80 745 77 577 89 782
106 1785 12 670 12 676 -10 801 -18 112 -20 150 -15 340 6 199 5 221 -16 309
-24 100 -138 438 -196 578 -250 605 -635 947 -1154 1027 -132 21 -359 18 -490
-5z"/>
</g>
</a>
</svg>
